<svg xmlns="http://www.w3.org/2000/svg" xmlns:xlink="http://www.w3.org/1999/xlink" width="500" zoomAndPan="magnify" viewBox="0 0 375 374.999991" height="500" preserveAspectRatio="xMidYMid meet" version="1.0"><defs><filter x="0%" y="0%" width="100%" height="100%" id="44065ac2a4"><feColorMatrix values="0 0 0 0 1 0 0 0 0 1 0 0 0 0 1 0 0 0 1 0" color-interpolation-filters="sRGB"/></filter><g/><clipPath id="44091c7c80"><path d="M 3.515625 0 L 371.765625 0 L 371.765625 204 L 3.515625 204 Z M 3.515625 0 " clip-rule="nonzero"/></clipPath><clipPath id="2e2810f830"><path d="M 0 0 L 375 0 L 375 375 L 0 375 Z M 0 0 " clip-rule="nonzero"/></clipPath><linearGradient x1="125.491997" gradientTransform="matrix(0.749826, 0, 0, 0.749827, 93.423925, -35.494568)" y1="47.337029" x2="125.491997" gradientUnits="userSpaceOnUse" y2="547.45256" id="6ae0155b12"><stop stop-opacity="1" stop-color="rgb(36.56311%, 23.100281%, 0.379944%)" offset="0"/><stop stop-opacity="1" stop-color="rgb(36.729431%, 23.220825%, 0.376892%)" offset="0.015625"/><stop stop-opacity="1" stop-color="rgb(37.063599%, 23.46344%, 0.369263%)" offset="0.03125"/><stop stop-opacity="1" stop-color="rgb(37.397766%, 23.704529%, 0.363159%)" offset="0.046875"/><stop stop-opacity="1" stop-color="rgb(37.731934%, 23.947144%, 0.357056%)" offset="0.0625"/><stop stop-opacity="1" stop-color="rgb(38.066101%, 24.189758%, 0.350952%)" offset="0.078125"/><stop stop-opacity="1" stop-color="rgb(38.400269%, 24.430847%, 0.343323%)" offset="0.09375"/><stop stop-opacity="1" stop-color="rgb(38.734436%, 24.673462%, 0.337219%)" offset="0.109375"/><stop stop-opacity="1" stop-color="rgb(39.067078%, 24.916077%, 0.331116%)" offset="0.125"/><stop stop-opacity="1" stop-color="rgb(39.401245%, 25.157166%, 0.323486%)" offset="0.140625"/><stop stop-opacity="1" stop-color="rgb(39.735413%, 25.39978%, 0.317383%)" offset="0.15625"/><stop stop-opacity="1" stop-color="rgb(40.06958%, 25.642395%, 0.311279%)" offset="0.171875"/><stop stop-opacity="1" stop-color="rgb(40.403748%, 25.883484%, 0.305176%)" offset="0.1875"/><stop stop-opacity="1" stop-color="rgb(40.737915%, 26.126099%, 0.297546%)" offset="0.203125"/><stop stop-opacity="1" stop-color="rgb(41.072083%, 26.368713%, 0.291443%)" offset="0.21875"/><stop stop-opacity="1" stop-color="rgb(41.404724%, 26.611328%, 0.285339%)" offset="0.234375"/><stop stop-opacity="1" stop-color="rgb(41.738892%, 26.852417%, 0.279236%)" offset="0.25"/><stop stop-opacity="1" stop-color="rgb(42.073059%, 27.095032%, 0.271606%)" offset="0.265625"/><stop stop-opacity="1" stop-color="rgb(42.407227%, 27.337646%, 0.265503%)" offset="0.28125"/><stop stop-opacity="1" stop-color="rgb(42.741394%, 27.578735%, 0.259399%)" offset="0.296875"/><stop stop-opacity="1" stop-color="rgb(43.075562%, 27.82135%, 0.253296%)" offset="0.3125"/><stop stop-opacity="1" stop-color="rgb(43.408203%, 28.063965%, 0.245667%)" offset="0.328125"/><stop stop-opacity="1" stop-color="rgb(43.742371%, 28.305054%, 0.239563%)" offset="0.34375"/><stop stop-opacity="1" stop-color="rgb(44.076538%, 28.547668%, 0.233459%)" offset="0.359375"/><stop stop-opacity="1" stop-color="rgb(44.410706%, 28.790283%, 0.22583%)" offset="0.375"/><stop stop-opacity="1" stop-color="rgb(44.744873%, 29.031372%, 0.219727%)" offset="0.390625"/><stop stop-opacity="1" stop-color="rgb(45.079041%, 29.273987%, 0.213623%)" offset="0.40625"/><stop stop-opacity="1" stop-color="rgb(45.413208%, 29.516602%, 0.20752%)" offset="0.421875"/><stop stop-opacity="1" stop-color="rgb(45.74585%, 29.75769%, 0.19989%)" offset="0.4375"/><stop stop-opacity="1" stop-color="rgb(46.080017%, 30.000305%, 0.193787%)" offset="0.453125"/><stop stop-opacity="1" stop-color="rgb(46.414185%, 30.24292%, 0.187683%)" offset="0.46875"/><stop stop-opacity="1" stop-color="rgb(46.748352%, 30.484009%, 0.18158%)" offset="0.484375"/><stop stop-opacity="1" stop-color="rgb(47.08252%, 30.726624%, 0.17395%)" offset="0.5"/><stop stop-opacity="1" stop-color="rgb(47.416687%, 30.969238%, 0.167847%)" offset="0.515625"/><stop stop-opacity="1" stop-color="rgb(47.750854%, 31.210327%, 0.161743%)" offset="0.53125"/><stop stop-opacity="1" stop-color="rgb(48.083496%, 31.452942%, 0.15564%)" offset="0.546875"/><stop stop-opacity="1" stop-color="rgb(48.417664%, 31.695557%, 0.14801%)" offset="0.5625"/><stop stop-opacity="1" stop-color="rgb(48.751831%, 31.936646%, 0.141907%)" offset="0.578125"/><stop stop-opacity="1" stop-color="rgb(49.085999%, 32.17926%, 0.135803%)" offset="0.59375"/><stop stop-opacity="1" stop-color="rgb(49.420166%, 32.421875%, 0.128174%)" offset="0.609375"/><stop stop-opacity="1" stop-color="rgb(49.754333%, 32.662964%, 0.12207%)" offset="0.625"/><stop stop-opacity="1" stop-color="rgb(50.088501%, 32.905579%, 0.115967%)" offset="0.640625"/><stop stop-opacity="1" stop-color="rgb(50.421143%, 33.148193%, 0.109863%)" offset="0.65625"/><stop stop-opacity="1" stop-color="rgb(50.75531%, 33.389282%, 0.102234%)" offset="0.671875"/><stop stop-opacity="1" stop-color="rgb(51.089478%, 33.631897%, 0.0961304%)" offset="0.6875"/><stop stop-opacity="1" stop-color="rgb(51.423645%, 33.874512%, 0.0900269%)" offset="0.703125"/><stop stop-opacity="1" stop-color="rgb(51.757812%, 34.115601%, 0.0839233%)" offset="0.71875"/><stop stop-opacity="1" stop-color="rgb(52.09198%, 34.358215%, 0.0762939%)" offset="0.734375"/><stop stop-opacity="1" stop-color="rgb(52.426147%, 34.60083%, 0.0701904%)" offset="0.75"/><stop stop-opacity="1" stop-color="rgb(52.758789%, 34.841919%, 0.0640869%)" offset="0.765625"/><stop stop-opacity="1" stop-color="rgb(53.092957%, 35.084534%, 0.0579834%)" offset="0.78125"/><stop stop-opacity="1" stop-color="rgb(53.427124%, 35.327148%, 0.050354%)" offset="0.796875"/><stop stop-opacity="1" stop-color="rgb(53.761292%, 35.568237%, 0.0442505%)" offset="0.8125"/><stop stop-opacity="1" stop-color="rgb(54.095459%, 35.810852%, 0.038147%)" offset="0.828125"/><stop stop-opacity="1" stop-color="rgb(54.429626%, 36.053467%, 0.0305176%)" offset="0.84375"/><stop stop-opacity="1" stop-color="rgb(54.763794%, 36.294556%, 0.0244141%)" offset="0.859375"/><stop stop-opacity="1" stop-color="rgb(55.096436%, 36.53717%, 0.0183105%)" offset="0.875"/><stop stop-opacity="1" stop-color="rgb(55.430603%, 36.779785%, 0.012207%)" offset="0.890625"/><stop stop-opacity="1" stop-color="rgb(55.764771%, 37.020874%, 0.00457764%)" offset="0.90625"/><stop stop-opacity="1" stop-color="rgb(56.005859%, 37.19635%, 0%)" offset="0.9375"/><stop stop-opacity="1" stop-color="rgb(56.079102%, 37.249756%, 0%)" offset="1"/></linearGradient><clipPath id="31bf0651bc"><rect x="0" width="375" y="0" height="375"/></clipPath><clipPath id="7a0117e721"><rect x="0" width="375" y="0" height="375"/></clipPath><clipPath id="c1bfd66c6d"><rect x="0" width="375" y="0" height="375"/></clipPath><mask id="55631095a8"><g filter="url(#44065ac2a4)"><g transform="matrix(1, 0, 0, 1, 0, 0)"><g clip-path="url(#c1bfd66c6d)"><g transform="matrix(1, 0, 0, 1, 0, 0)"><g clip-path="url(#7a0117e721)"><g fill="#000000" fill-opacity="1"><g transform="translate(93.384373, 259.208684)"><g><path d="M 185.625 -3.46875 C 186.195312 -3.46875 186.484375 -2.890625 186.484375 -1.734375 C 186.484375 -0.578125 186.195312 0 185.625 0 L 153.1875 0 C 151.644531 0 148.894531 0.046875 144.9375 0.140625 C 140.976562 0.242188 135.425781 -4.671875 128.28125 -14.609375 C 121.132812 -24.554688 114.28125 -33.679688 107.71875 -41.984375 L 63.421875 -97.875 L 53.859375 -88.609375 L 53.859375 -23.453125 C 53.859375 -17.660156 54.4375 -13.363281 55.59375 -10.5625 C 56.757812 -7.769531 59.03125 -5.890625 62.40625 -4.921875 C 65.78125 -3.953125 71.132812 -3.46875 78.46875 -3.46875 C 79.050781 -3.46875 79.34375 -2.890625 79.34375 -1.734375 C 79.34375 -0.578125 79.050781 0 78.46875 0 C 72.675781 0 68.046875 -0.0976562 64.578125 -0.296875 L 44.3125 -0.578125 L 24.609375 -0.296875 C 21.140625 -0.0976562 16.316406 0 10.140625 0 C 9.753906 0 9.5625 -0.578125 9.5625 -1.734375 C 9.5625 -2.890625 9.753906 -3.46875 10.140625 -3.46875 C 17.472656 -3.46875 22.828125 -3.953125 26.203125 -4.921875 C 29.585938 -5.890625 31.90625 -7.769531 33.15625 -10.5625 C 34.40625 -13.363281 35.03125 -17.660156 35.03125 -23.453125 L 35.03125 -157.53125 C 35.03125 -163.320312 34.453125 -167.566406 33.296875 -170.265625 C 32.140625 -172.972656 29.867188 -174.859375 26.484375 -175.921875 C 23.109375 -176.984375 17.753906 -177.515625 10.421875 -177.515625 C 10.035156 -177.515625 9.84375 -178.09375 9.84375 -179.25 C 9.84375 -180.40625 10.035156 -180.984375 10.421875 -180.984375 L 24.90625 -180.703125 C 33.007812 -180.316406 39.476562 -180.125 44.3125 -180.125 C 49.90625 -180.125 56.753906 -180.316406 64.859375 -180.703125 L 78.46875 -180.984375 C 79.050781 -180.984375 79.34375 -180.40625 79.34375 -179.25 C 79.34375 -178.09375 79.050781 -177.515625 78.46875 -177.515625 C 71.332031 -177.515625 66.070312 -176.929688 62.6875 -175.765625 C 59.3125 -174.609375 56.992188 -172.628906 55.734375 -169.828125 C 54.484375 -167.035156 53.859375 -162.742188 53.859375 -156.953125 L 53.859375 -95.84375 L 115.828125 -157.53125 C 122.203125 -163.90625 125.390625 -168.632812 125.390625 -171.71875 C 125.390625 -175.582031 119.691406 -177.515625 108.296875 -177.515625 C 107.910156 -177.515625 107.71875 -178.09375 107.71875 -179.25 C 107.71875 -180.40625 107.910156 -180.984375 108.296875 -180.984375 L 120.75 -180.703125 C 128.476562 -180.316406 135.523438 -180.125 141.890625 -180.125 C 148.265625 -180.125 154.925781 -180.316406 161.875 -180.703125 L 172.59375 -180.984375 C 173.164062 -180.984375 173.453125 -180.40625 173.453125 -179.25 C 173.453125 -178.09375 173.164062 -177.515625 172.59375 -177.515625 C 164.675781 -177.515625 156.273438 -175.773438 147.390625 -172.296875 C 138.515625 -168.828125 130.210938 -163.328125 122.484375 -155.796875 L 76.734375 -110.90625 L 118.4375 -57.625 C 132.53125 -39.28125 143.289062 -26.34375 150.71875 -18.8125 C 158.15625 -11.289062 163.898438 -6.851562 167.953125 -5.5 C 172.003906 -4.144531 177.894531 -3.46875 185.625 -3.46875 Z M 185.625 -3.46875 "/></g></g></g></g></g></g></g></g></mask><clipPath id="d48b9f1eab"><path d="M 0 0 L 375 0 L 375 375 L 0 375 Z M 0 0 " clip-rule="nonzero"/></clipPath><clipPath id="9a7c16dd22"><rect x="0" width="375" y="0" height="375"/></clipPath><clipPath id="ceb0461fe4"><rect x="0" width="375" y="0" height="375"/></clipPath></defs><g clip-path="url(#44091c7c80)"><path fill="#5c3a01" d="M 43.140625 151.484375 C 38.152344 134.875 34.320312 117.554688 31.734375 99.933594 C 43.910156 98.128906 57.984375 94.261719 73.648438 88.410156 C 90.699219 82.039062 109.914062 73.253906 130.765625 62.289062 C 155.609375 49.222656 177.136719 35.984375 187.445312 29.460938 C 187.464844 29.472656 187.480469 29.484375 187.5 29.496094 C 187.519531 29.484375 187.535156 29.472656 187.554688 29.460938 C 197.863281 35.984375 219.390625 49.222656 244.234375 62.289062 C 265.085938 73.253906 284.300781 82.039062 301.351562 88.410156 C 317.015625 94.261719 331.089844 98.128906 343.265625 99.933594 C 340.679688 117.554688 336.847656 134.875 331.859375 151.484375 C 326.488281 169.382812 319.632812 186.90625 311.488281 203.617188 C 358.226562 152.964844 371.484375 77.148438 371.484375 77.148438 L 357.574219 76.984375 C 335.515625 76.726562 300.585938 64.355469 256.558594 41.214844 C 222.46875 23.296875 195.039062 5.183594 194.765625 5 L 187.554688 0.222656 L 187.5 0.257812 L 187.445312 0.222656 L 180.230469 5 C 179.960938 5.183594 152.53125 23.296875 118.441406 41.214844 C 74.414062 64.355469 39.484375 76.726562 17.425781 76.984375 L 3.515625 77.148438 C 3.515625 77.148438 16.773438 152.964844 63.511719 203.617188 C 55.367188 186.90625 48.515625 169.382812 43.140625 151.484375 " fill-opacity="1" fill-rule="nonzero"/></g><path fill="#5c3a01" d="M 187.554688 344.96875 C 187.535156 344.957031 187.519531 344.945312 187.5 344.933594 C 187.480469 344.945312 187.464844 344.957031 187.445312 344.96875 C 107.714844 293.878906 39.667969 191.324219 26.640625 171.691406 C 31.089844 184.386719 36.152344 196.835938 41.769531 208.898438 C 57.246094 242.128906 77.191406 273.097656 101.046875 300.945312 C 122.285156 325.738281 142.78125 343.4375 156.242188 353.925781 C 171.050781 365.460938 180.847656 371.089844 181.261719 371.324219 L 187.445312 374.855469 L 187.5 374.820312 L 187.554688 374.855469 L 193.738281 371.324219 C 194.152344 371.089844 203.949219 365.460938 218.757812 353.925781 C 232.21875 343.4375 252.714844 325.738281 273.953125 300.945312 C 297.808594 273.097656 317.753906 242.128906 333.230469 208.898438 C 338.847656 196.835938 343.910156 184.386719 348.359375 171.691406 C 335.332031 191.324219 267.285156 293.878906 187.554688 344.96875 " fill-opacity="1" fill-rule="nonzero"/><g transform="matrix(1, 0, 0, 1, 0, 0)"><g clip-path="url(#ceb0461fe4)"><g mask="url(#55631095a8)"><g transform="matrix(1, 0, 0, 1, 0, 0)"><g clip-path="url(#9a7c16dd22)"><g clip-path="url(#d48b9f1eab)"><rect x="-136.5" fill="url(#6ae0155b12)" width="648" y="-136.499997" height="647.999984"/></g></g></g></g></g></g></svg>